<?xml version="1.0" encoding="utf-8"?>
<!DOCTYPE svg PUBLIC "-//W3C//DTD SVG 1.1//EN" "http://www.w3.org/Graphics/SVG/1.1/DTD/svg11.dtd">
<svg version="1.1" id="Layer_1" xmlns="http://www.w3.org/2000/svg" xmlns:xlink="http://www.w3.org/1999/xlink" x="0px" y="0px"
	 width="47px" fill="#FFECA7" height="31px" viewBox="0 0 47 31" style="enable-background:new 0 0 47 31;" xml:space="preserve">
<style type="text/css">
<![CDATA[
	.st0{fill-rule:evenodd;clip-rule:evenodd;}
]]>
</style>
<path d="M46.9,13.3L46.9,13.3C46.6,12.7,37.8,0,23.7,0h-0.4C9.2,0,0.4,12.7,0.1,13.2l0.1,0.1L0,13.4c0.1,0.2,2.3,4.4,6.2,8.8
	c5.3,5.8,11.2,8.9,17.1,8.9h0.4c5.9,0,11.8-3.1,17.1-8.9c3.9-4.3,6.1-8.6,6.2-8.8L46.9,13.3z M11.9,5.2c3.2-1.8,7-3.2,11.4-3.2
	h0.4c4.2,0,8,1.3,11.1,3c0.8,1.7,1.2,3.5,1.2,5.5c0,7-5.7,12.7-12.7,12.7s-12.7-5.7-12.7-12.7C10.7,8.6,11.2,6.8,11.9,5.2z
		M23.7,29h-0.4c-11,0-18.8-11.9-21-15.5C3.4,12.1,5.8,9.4,9.2,7c-0.3,1.1-0.5,2.3-0.5,3.5c0,8.1,6.6,14.8,14.6,14.8
	c8.1,0,14.6-6.6,14.6-14.8c0-1.3-0.2-2.6-0.5-3.8c3.6,2.5,6,5.4,7.1,6.8C42.5,17.2,34.7,29,23.7,29z M17.9,13.8
	c2.5,0,4.6-2.1,4.6-4.6c0-2.5-2.1-4.6-4.6-4.6c-2.5,0-4.6,2.1-4.6,4.6C13.3,11.8,15.4,13.8,17.9,13.8z M17.9,6.6
	c1.4,0,2.6,1.2,2.6,2.6c0,1.4-1.2,2.6-2.6,2.6c-1.4,0-2.6-1.2-2.6-2.6C15.3,7.8,16.4,6.6,17.9,6.6z"/>
</svg>
