<?xml version="1.0" encoding="utf-8"?>
<!-- Generator: Adobe Illustrator 18.1.1, SVG Export Plug-In . SVG Version: 6.00 Build 0)  -->
<svg version="1.1" id="Layer_1" xmlns="http://www.w3.org/2000/svg" xmlns:xlink="http://www.w3.org/1999/xlink" x="0px" y="0px"
	 width="19.5px" height="11.8px" viewBox="-295.2 387 19.5 11.8" enable-background="new -295.2 387 19.5 11.8"
	 xml:space="preserve">
<path fill="#fff" d="M-285.5,392c-0.3,0-0.5-0.2-0.5-0.5v-3c0-0.3,0.2-0.5,0.5-0.5s0.5,0.2,0.5,0.5v3C-285,391.8-285.2,392-285.5,392z"/>
<path fill="#fff" d="M-291.5,398h-3c-0.3,0-0.5-0.2-0.5-0.5s0.2-0.5,0.5-0.5h3c0.3,0,0.5,0.2,0.5,0.5S-291.2,398-291.5,398z"/>
<path fill="#fff" d="M-276.5,398h-3c-0.3,0-0.5-0.2-0.5-0.5s0.2-0.5,0.5-0.5h3c0.3,0,0.5,0.2,0.5,0.5S-276.2,398-276.5,398z"/>
<path fill="#fff" d="M-290.5,393c-0.1,0-0.3,0-0.4-0.1l-2-2c-0.2-0.2-0.2-0.5,0-0.7s0.5-0.2,0.7,0l2,2c0.2,0.2,0.2,0.5,0,0.7
	C-290.2,393-290.4,393-290.5,393L-290.5,393z"/>
<path fill="#fff" d="M-280.5,393c-0.1,0-0.3,0-0.4-0.1c-0.2-0.2-0.2-0.5,0-0.7l2-2c0.2-0.2,0.5-0.2,0.7,0s0.2,0.5,0,0.7l-2,2
	C-280.2,393-280.4,393-280.5,393L-280.5,393z"/>
<path fill="#fff" d="M-285.5,393c-2.5,0-4.5,2-4.5,4.5c0,0.2,0,0.3,0.1,0.5h0.1h0.9h6.9h0.8h0.2c0-0.2,0.1-0.3,0.1-0.5
	C-281,395-283,393-285.5,393z M-288.9,397c0.2-1.7,1.7-3,3.4-3s3.2,1.3,3.4,3H-288.9z"/>
</svg>
