<svg xmlns="http://www.w3.org/2000/svg" xmlns:xlink="http://www.w3.org/1999/xlink" version="1.1" x="0px" y="0px" viewBox="0 0 24 24" style="enable-background:new 0 0 24 24;" xml:space="preserve"><g><path d="M23.1,15.031c-1.132-0.231-2.418-0.432-3.933-0.616c-0.183-0.024-0.366,0.06-0.472,0.212   c-0.105,0.153-0.118,0.352-0.031,0.516l3.894,7.433c0.088,0.167,0.26,0.268,0.443,0.268c0.04,0,0.08-0.005,0.12-0.015   c0.223-0.055,0.38-0.255,0.38-0.485v-6.824C23.5,15.283,23.333,15.079,23.1,15.031z"/><path d="M17.169,14.446c-0.08-0.153-0.233-0.253-0.405-0.267l-0.397-0.031c-0.411-0.033-0.821-0.066-1.243-0.086   c-0.146-0.007-0.285,0.05-0.385,0.154c-0.1,0.104-0.15,0.247-0.137,0.391l0.813,8.938C15.439,23.803,15.655,24,15.914,24h5.434   c0.175,0,0.337-0.091,0.428-0.241c0.091-0.149,0.096-0.336,0.015-0.491L17.169,14.446z"/><path d="M5.263,14.702c-0.106-0.153-0.29-0.236-0.475-0.209c-1.509,0.2-2.783,0.414-3.894,0.655   c-0.23,0.05-0.394,0.253-0.394,0.489v6.709c0,0.23,0.157,0.431,0.38,0.485c0.04,0.01,0.08,0.015,0.12,0.015   c0.183,0,0.355-0.101,0.443-0.268l3.854-7.357C5.383,15.055,5.37,14.855,5.263,14.702z"/><path d="M13.095,14.014l-0.336-0.009c-0.479-0.015-0.967-0.005-1.446,0.011l-0.496,0.015   c-0.237,0.006-0.438,0.177-0.479,0.411l-1.631,8.969c-0.027,0.146,0.013,0.296,0.108,0.41C8.909,23.934,9.05,24,9.198,24h4.707   c0.141,0,0.274-0.059,0.369-0.163c0.095-0.104,0.142-0.243,0.129-0.383l-0.817-8.986C13.562,14.213,13.351,14.018,13.095,14.014z"/><path d="M9.156,14.276c-0.101-0.114-0.24-0.168-0.404-0.167c-0.523,0.031-1.035,0.074-1.546,0.118   c-0.17,0.015-0.321,0.115-0.4,0.266l-4.597,8.775c-0.081,0.155-0.076,0.341,0.015,0.491C2.315,23.909,2.478,24,2.652,24h4.513   c0.242,0,0.449-0.173,0.492-0.411l1.617-8.893C9.302,14.546,9.258,14.391,9.156,14.276z"/></g></svg>