<svg xmlns:dc="http://purl.org/dc/elements/1.1/" xmlns:cc="http://creativecommons.org/ns#" xmlns:rdf="http://www.w3.org/1999/02/22-rdf-syntax-ns#" xmlns:svg="http://www.w3.org/2000/svg" xmlns="http://www.w3.org/2000/svg" xmlns:sodipodi="http://sodipodi.sourceforge.net/DTD/sodipodi-0.dtd" xmlns:inkscape="http://www.inkscape.org/namespaces/inkscape" viewBox="0 0 48 50" version="1.1" x="0px" y="0px"><g transform="translate(0,-1004.3622)"><path style="color:#000000;font-style:normal;font-variant:normal;font-weight:normal;font-stretch:normal;font-size:medium;line-height:normal;font-family:sans-serif;text-indent:0;text-align:start;text-decoration:none;text-decoration-line:none;text-decoration-style:solid;text-decoration-color:#000000;letter-spacing:normal;word-spacing:normal;text-transform:none;direction:ltr;block-progression:tb;writing-mode:lr-tb;baseline-shift:baseline;text-anchor:start;white-space:normal;clip-rule:nonzero;display:inline;overflow:visible;visibility:visible;opacity:1;isolation:auto;mix-blend-mode:normal;color-interpolation:sRGB;color-interpolation-filters:linearRGB;solid-color:#000000;solid-opacity:1;fill:#000000;fill-opacity:1;fill-rule:evenodd;stroke:none;stroke-width:1.99999988;stroke-linecap:butt;stroke-linejoin:miter;stroke-miterlimit:4;stroke-dasharray:none;stroke-dashoffset:0;stroke-opacity:1;color-rendering:auto;image-rendering:auto;shape-rendering:auto;text-rendering:auto;enable-background:accumulate" d="m 10,1013.3619 0,25.9991 c 0,0.8452 0.411929,1.535 0.939453,2.0625 0.527525,0.5275 1.215366,0.9374 2.060547,0.9374 0.845181,0 1.533022,-0.4099 2.060547,-0.9374 C 15.588071,1040.896 16,1040.2062 16,1039.361 l 0,-25.9991 -2,0 0,25.9991 c 0,0.098 -0.116742,0.4097 -0.353516,0.6465 -0.236773,0.2368 -0.548856,0.3535 -0.646484,0.3535 -0.09763,0 -0.409711,-0.1167 -0.646484,-0.3535 C 12.116742,1039.7707 12,1039.4587 12,1039.361 l 0,-25.9991 -2,0 z"/><path style="color:#000000;font-style:normal;font-variant:normal;font-weight:normal;font-stretch:normal;font-size:medium;line-height:normal;font-family:sans-serif;text-indent:0;text-align:start;text-decoration:none;text-decoration-line:none;text-decoration-style:solid;text-decoration-color:#000000;letter-spacing:normal;word-spacing:normal;text-transform:none;direction:ltr;block-progression:tb;writing-mode:lr-tb;baseline-shift:baseline;text-anchor:start;white-space:normal;clip-rule:nonzero;display:inline;overflow:visible;visibility:visible;opacity:1;isolation:auto;mix-blend-mode:normal;color-interpolation:sRGB;color-interpolation-filters:linearRGB;solid-color:#000000;solid-opacity:1;fill:#000000;fill-opacity:1;fill-rule:evenodd;stroke:none;stroke-width:1.99999988;stroke-linecap:round;stroke-linejoin:round;stroke-miterlimit:4;stroke-dasharray:none;stroke-dashoffset:0;stroke-opacity:1;color-rendering:auto;image-rendering:auto;shape-rendering:auto;text-rendering:auto;enable-background:accumulate" d="m 9,1004.3622 a 1.0000999,1.0000665 0 0 0 -1,1 l 0,3.9998 a 1.0000999,1.0000665 0 0 0 0.1054688,0.4473 l 2.0000002,3.9999 A 1.0000999,1.0000665 0 0 0 11,1014.3619 l 4,0 a 1.0000999,1.0000665 0 0 0 0.894531,-0.5527 l 2,-3.9999 A 1.0000999,1.0000665 0 0 0 18,1009.362 l 0,-3.9998 a 1.0000999,1.0000665 0 0 0 -1,-1 l -8,0 z m 1,1.9999 6,0 0,2.7656 -1.617188,3.2342 -2.765624,0 L 10,1009.1277 l 0,-2.7656 z"/><path style="color:#000000;font-style:normal;font-variant:normal;font-weight:normal;font-stretch:normal;font-size:medium;line-height:normal;font-family:sans-serif;text-indent:0;text-align:start;text-decoration:none;text-decoration-line:none;text-decoration-style:solid;text-decoration-color:#000000;letter-spacing:normal;word-spacing:normal;text-transform:none;direction:ltr;block-progression:tb;writing-mode:lr-tb;baseline-shift:baseline;text-anchor:start;white-space:normal;clip-rule:nonzero;display:inline;overflow:visible;visibility:visible;opacity:1;isolation:auto;mix-blend-mode:normal;color-interpolation:sRGB;color-interpolation-filters:linearRGB;solid-color:#000000;solid-opacity:1;fill:#000000;fill-opacity:1;fill-rule:evenodd;stroke:none;stroke-width:2;stroke-linecap:round;stroke-linejoin:round;stroke-miterlimit:4;stroke-dasharray:none;stroke-dashoffset:0;stroke-opacity:1;color-rendering:auto;image-rendering:auto;shape-rendering:auto;text-rendering:auto;enable-background:accumulate" d="m 14.998047,1036.3611 a 1.0001,1.0000666 0 0 0 -0.193359,1.9844 L 19,1039.1833 l 0,9.1794 c 0,0.2764 -0.03865,0.2974 -0.285156,0.4805 -0.246505,0.183 -0.697086,0.3742 -1.1875,0.6367 -0.493814,0.2642 -1.710808,0.548 -2.728516,0.6914 -0.986639,0.139 -1.749863,0.1827 -1.798828,0.1855 -0.04897,0 -0.812189,-0.047 -1.798828,-0.1855 -1.017708,-0.1434 -2.2347023,-0.4272 -2.7285158,-0.6914 -0.4904145,-0.2625 -0.9409951,-0.4537 -1.1875,-0.6367 C 7.0386514,1048.6601 7,1048.6391 7,1048.3627 l 0,-9.1794 4.195312,-0.8378 a 1.0001,1.0000666 0 1 0 -0.390624,-1.9609 l -5.0000005,1 A 1.0001,1.0000666 0 0 0 5,1038.365 l 0,9.9977 c 0,0.925 0.5461145,1.6807 1.0917969,2.0859 0.5456823,0.4052 1.0947104,0.6125 1.4355469,0.7948 1.0047445,0.5376 2.2868781,0.7522 3.3945312,0.9082 1.107653,0.1561 2.021484,0.209 2.021484,0.209 a 1.0001,1.0000666 0 0 0 0.113282,0 c 0,0 0.913831,-0.053 2.021484,-0.209 1.107653,-0.156 2.389787,-0.3706 3.394531,-0.9082 0.340837,-0.1823 0.889865,-0.3896 1.435547,-0.7948 C 20.453885,1050.0434 21,1049.2877 21,1048.3627 l 0,-9.9977 a 1.0001,1.0000666 0 0 0 -0.804688,-0.9804 l -5,-1 a 1.0001,1.0000666 0 0 0 -0.197265,-0.024 z"/><path style="color:#000000;font-style:normal;font-variant:normal;font-weight:normal;font-stretch:normal;font-size:medium;line-height:normal;font-family:sans-serif;text-indent:0;text-align:start;text-decoration:none;text-decoration-line:none;text-decoration-style:solid;text-decoration-color:#000000;letter-spacing:normal;word-spacing:normal;text-transform:none;direction:ltr;block-progression:tb;writing-mode:lr-tb;baseline-shift:baseline;text-anchor:start;white-space:normal;clip-rule:nonzero;display:inline;overflow:visible;visibility:visible;opacity:1;isolation:auto;mix-blend-mode:normal;color-interpolation:sRGB;color-interpolation-filters:linearRGB;solid-color:#000000;solid-opacity:1;fill:#000000;fill-opacity:1;fill-rule:evenodd;stroke:none;stroke-width:2;stroke-linecap:round;stroke-linejoin:round;stroke-miterlimit:4;stroke-dasharray:none;stroke-dashoffset:0;stroke-opacity:1;color-rendering:auto;image-rendering:auto;shape-rendering:auto;text-rendering:auto;enable-background:accumulate" d="m 11.013672,1032.3613 a 1.0001,1.0000666 0 1 0 0,1.9999 l 3.972656,0 a 1.0001,1.0000666 0 1 0 0,-1.9999 l -3.972656,0 z"/><path style="color:#000000;font-style:normal;font-variant:normal;font-weight:normal;font-stretch:normal;font-size:medium;line-height:normal;font-family:sans-serif;text-indent:0;text-align:start;text-decoration:none;text-decoration-line:none;text-decoration-style:solid;text-decoration-color:#000000;letter-spacing:normal;word-spacing:normal;text-transform:none;direction:ltr;block-progression:tb;writing-mode:lr-tb;baseline-shift:baseline;text-anchor:start;white-space:normal;clip-rule:nonzero;display:inline;overflow:visible;visibility:visible;opacity:1;isolation:auto;mix-blend-mode:normal;color-interpolation:sRGB;color-interpolation-filters:linearRGB;solid-color:#000000;solid-opacity:1;fill:#000000;fill-opacity:1;fill-rule:evenodd;stroke:none;stroke-width:2;stroke-linecap:round;stroke-linejoin:round;stroke-miterlimit:4;stroke-dasharray:none;stroke-dashoffset:0;stroke-opacity:1;color-rendering:auto;image-rendering:auto;shape-rendering:auto;text-rendering:auto;enable-background:accumulate" d="m 26.017578,1038.3611 a 1.0001,1.0000666 0 0 0 -1,0.9999 L 25,1051.345 a 1.0001,1.0000666 0 1 0 2,0 l 0.01758,-10.9879 13.980469,0 -0.01563,10.984 a 1.0001,1.0000666 0 1 0 2,0 L 43,1039.363 a 1.0001,1.0000666 0 0 0 -1,-1.0019 l -15.982422,0 z"/><path style="color:#000000;font-style:normal;font-variant:normal;font-weight:normal;font-stretch:normal;font-size:medium;line-height:normal;font-family:sans-serif;text-indent:0;text-align:start;text-decoration:none;text-decoration-line:none;text-decoration-style:solid;text-decoration-color:#000000;letter-spacing:normal;word-spacing:normal;text-transform:none;direction:ltr;block-progression:tb;writing-mode:lr-tb;baseline-shift:baseline;text-anchor:start;white-space:normal;clip-rule:nonzero;display:inline;overflow:visible;visibility:visible;opacity:1;isolation:auto;mix-blend-mode:normal;color-interpolation:sRGB;color-interpolation-filters:linearRGB;solid-color:#000000;solid-opacity:1;fill:#000000;fill-opacity:1;fill-rule:evenodd;stroke:none;stroke-width:2;stroke-linecap:round;stroke-linejoin:round;stroke-miterlimit:4;stroke-dasharray:none;stroke-dashoffset:0;stroke-opacity:1;color-rendering:auto;image-rendering:auto;shape-rendering:auto;text-rendering:auto;enable-background:accumulate" d="m 31,1004.3622 a 1.0001,1.0000666 0 0 0 -0.978516,1.2051 c 0.519455,2.5017 1.760534,4.48 3.175782,6.3904 a 1.0001,1.0000666 0 0 0 1.568359,0.049 c 1.621291,-1.9317 2.544759,-4.037 3.197266,-6.3747 A 1.0001,1.0000666 0 0 0 37,1004.3622 l -6,0 z m 1.421875,1.9999 3.150391,0 c -0.396022,1.1365 -0.922719,2.194 -1.570313,3.1718 -0.674607,-1.0127 -1.201032,-2.0725 -1.580078,-3.1718 z"/><path style="color:#000000;font-style:normal;font-variant:normal;font-weight:normal;font-stretch:normal;font-size:medium;line-height:normal;font-family:sans-serif;text-indent:0;text-align:start;text-decoration:none;text-decoration-line:none;text-decoration-style:solid;text-decoration-color:#000000;letter-spacing:normal;word-spacing:normal;text-transform:none;direction:ltr;block-progression:tb;writing-mode:lr-tb;baseline-shift:baseline;text-anchor:start;white-space:normal;clip-rule:nonzero;display:inline;overflow:visible;visibility:visible;opacity:1;isolation:auto;mix-blend-mode:normal;color-interpolation:sRGB;color-interpolation-filters:linearRGB;solid-color:#000000;solid-opacity:1;fill:#000000;fill-opacity:1;fill-rule:evenodd;stroke:none;stroke-width:2.00000024;stroke-linecap:round;stroke-linejoin:round;stroke-miterlimit:4;stroke-dasharray:none;stroke-dashoffset:0;stroke-opacity:1;color-rendering:auto;image-rendering:auto;shape-rendering:auto;text-rendering:auto;enable-background:accumulate" d="M 37.984375,1038.3631 A 1.0001001,1.0000667 0 0 0 37,1039.3767 l 0,11.9703 a 1.0001001,1.0000667 0 1 0 2,0 l 0,-11.9703 a 1.0001001,1.0000667 0 0 0 -1.015625,-1.0136 z"/><path style="color:#000000;font-style:normal;font-variant:normal;font-weight:normal;font-stretch:normal;font-size:medium;line-height:normal;font-family:sans-serif;text-indent:0;text-align:start;text-decoration:none;text-decoration-line:none;text-decoration-style:solid;text-decoration-color:#000000;letter-spacing:normal;word-spacing:normal;text-transform:none;direction:ltr;block-progression:tb;writing-mode:lr-tb;baseline-shift:baseline;text-anchor:start;white-space:normal;clip-rule:nonzero;display:inline;overflow:visible;visibility:visible;opacity:1;isolation:auto;mix-blend-mode:normal;color-interpolation:sRGB;color-interpolation-filters:linearRGB;solid-color:#000000;solid-opacity:1;fill:#000000;fill-opacity:1;fill-rule:evenodd;stroke:none;stroke-width:2.00000048;stroke-linecap:round;stroke-linejoin:round;stroke-miterlimit:4;stroke-dasharray:none;stroke-dashoffset:0;stroke-opacity:1;color-rendering:auto;image-rendering:auto;shape-rendering:auto;text-rendering:auto;enable-background:accumulate" d="M 29.984375,1038.3631 A 1.0001002,1.0000668 0 0 0 29,1039.3767 l 0,11.9703 a 1.0001002,1.0000668 0 1 0 2,0 l 0,-11.9703 a 1.0001002,1.0000668 0 0 0 -1.015625,-1.0136 z"/><path style="color:#000000;font-style:normal;font-variant:normal;font-weight:normal;font-stretch:normal;font-size:medium;line-height:normal;font-family:sans-serif;text-indent:0;text-align:start;text-decoration:none;text-decoration-line:none;text-decoration-style:solid;text-decoration-color:#000000;letter-spacing:normal;word-spacing:normal;text-transform:none;direction:ltr;block-progression:tb;writing-mode:lr-tb;baseline-shift:baseline;text-anchor:start;white-space:normal;clip-rule:nonzero;display:inline;overflow:visible;visibility:visible;opacity:1;isolation:auto;mix-blend-mode:normal;color-interpolation:sRGB;color-interpolation-filters:linearRGB;solid-color:#000000;solid-opacity:1;fill:#000000;fill-opacity:1;fill-rule:evenodd;stroke:none;stroke-width:1.99999976;stroke-linecap:round;stroke-linejoin:round;stroke-miterlimit:4;stroke-dasharray:none;stroke-dashoffset:0;stroke-opacity:1;color-rendering:auto;image-rendering:auto;shape-rendering:auto;text-rendering:auto;enable-background:accumulate" d="M 33.984375,1010.364 A 1.0000999,1.0000665 0 0 0 33,1011.3777 l 0,39.9693 a 1.0000999,1.0000665 0 1 0 2,0 l 0,-39.9693 a 1.0000999,1.0000665 0 0 0 -1.015625,-1.0137 z"/></g></svg>